<?xml version="1.0" standalone="no"?>
<!DOCTYPE svg PUBLIC "-//W3C//DTD SVG 20010904//EN"
 "http://www.w3.org/TR/2001/REC-SVG-20010904/DTD/svg10.dtd">
<svg version="1.0" xmlns="http://www.w3.org/2000/svg"
 width="175.000000pt" height="175.000000pt" viewBox="0 0 175.000000 175.000000"
 preserveAspectRatio="xMidYMid meet">
<metadata>
Created by potrace 1.14, written by Peter Selinger 2001-2017
</metadata>
<g transform="translate(0.000000,175.000000) scale(0.100000,-0.100000)"
fill="#000000" stroke="none">
<path d="M192 1735 c-29 -7 -56 -15 -59 -19 -10 -10 -6 -397 4 -407 15 -15
103 -27 173 -25 142 5 217 85 163 176 -9 16 -27 33 -39 39 l-23 10 29 30 c54
53 34 143 -39 181 -49 24 -139 31 -209 15z m135 -141 c8 -22 -9 -48 -36 -52
-18 -3 -21 1 -21 32 0 32 3 36 25 36 15 0 28 -7 32 -16z m-3 -137 c14 -22 -3
-51 -33 -55 -18 -3 -21 1 -21 37 0 36 2 41 22 38 12 -2 27 -11 32 -20z"/>
<path d="M601 1719 c-45 -27 -56 -39 -81 -87 -28 -53 -36 -136 -20 -202 29
-120 152 -180 266 -128 26 12 31 25 38 105 l4 51 -33 -19 c-47 -28 -90 -31
-117 -9 -32 26 -16 37 62 44 36 4 74 9 85 11 11 2 26 4 34 4 10 1 12 16 9 64
-7 119 -67 187 -162 187 -34 0 -62 -7 -85 -21z m117 -134 c13 -28 10 -31 -45
-39 -39 -5 -45 1 -31 28 23 43 59 48 76 11z"/>
<path d="M979 1731 c-74 -24 -120 -88 -113 -160 7 -68 43 -100 123 -108 51 -5
71 -17 54 -34 -15 -15 -94 -13 -134 4 l-35 14 -2 -37 c-2 -21 -5 -47 -7 -59
-4 -24 16 -38 85 -56 150 -39 275 71 229 203 -14 42 -49 62 -115 67 -63 4 -72
9 -55 29 12 14 87 15 129 2 12 -4 18 -1 19 12 0 9 2 36 4 60 1 23 -3 48 -9 54
-13 13 -138 20 -173 9z"/>
<path d="M1197 1724 c-4 -4 -7 -38 -7 -75 l0 -67 45 3 c25 2 46 1 46 -3 3 -17
7 -114 8 -194 l1 -88 58 0 c31 0 62 4 69 8 7 4 13 55 15 140 3 73 8 135 12
139 4 4 23 8 42 9 20 2 37 4 39 6 2 2 5 30 6 63 l3 60 -165 3 c-91 1 -168 -1
-172 -4z"/>
<path d="M1320 1095 l-45 -11 -2 -89 c-7 -247 -8 -335 -3 -336 3 -1 33 -2 68
-3 l62 -1 1 37 c1 21 2 48 2 61 1 24 24 44 36 31 5 -5 18 -36 31 -69 13 -33
24 -61 24 -62 1 -1 27 5 59 12 65 15 65 15 73 15 3 0 -11 30 -31 66 -36 66
-36 67 -15 81 11 8 27 27 35 42 42 82 12 175 -70 219 -37 19 -162 23 -225 7z
m154 -108 c22 -16 24 -63 5 -82 -8 -8 -26 -17 -41 -20 l-28 -7 0 61 c0 57 1
61 23 61 13 0 31 -6 41 -13z"/>
<path d="M113 1017 l-2 -74 46 1 c54 1 50 13 56 -169 l3 -110 67 -1 67 -2 1
42 c1 87 9 232 13 242 2 6 21 10 41 9 20 -1 39 3 43 9 3 6 7 37 7 68 l1 58
-171 0 -170 0 -2 -73z"/>
<path d="M570 1068 c-148 -80 -146 -301 5 -369 159 -73 325 89 268 261 -27 81
-80 120 -173 127 -45 4 -63 0 -100 -19z m116 -126 c36 -23 37 -86 3 -114 -30
-25 -54 -22 -78 8 -36 45 -9 113 44 114 11 0 25 -4 31 -8z"/>
<path d="M1109 1088 c0 -2 -2 -32 -4 -68 -6 -140 -28 -224 -61 -237 -9 -3 -20
0 -25 8 -15 23 -10 120 10 199 11 41 18 76 17 78 -9 8 -149 7 -152 -2 -10 -29
-16 -80 -19 -166 -3 -78 -1 -102 15 -135 41 -87 93 -115 168 -91 18 6 22 4 22
-13 0 -18 5 -19 63 -14 34 3 63 6 63 6 1 1 5 40 8 87 11 134 16 192 22 230 2
19 7 54 9 78 l4 42 -69 0 c-39 0 -70 -1 -71 -2z"/>
<path d="M527 460 c-10 -4 -14 -55 -16 -204 -1 -109 -4 -208 -6 -219 -4 -19
-1 -19 108 -12 62 5 132 7 157 6 147 -8 163 -7 166 12 5 37 13 44 46 43 28 -1
34 -6 43 -34 l9 -33 71 7 c38 3 73 8 78 11 4 2 7 -1 7 -7 0 -7 27 -10 80 -8
l80 3 1 70 c2 177 7 226 25 246 29 32 45 5 47 -77 1 -68 -9 -183 -19 -216 -5
-16 4 -18 84 -18 77 0 90 2 94 17 7 28 2 233 -7 283 -19 113 -91 163 -176 120
-35 -18 -38 -19 -41 -2 -3 15 -13 17 -73 14 -38 -2 -71 -4 -72 -5 -1 -1 -5
-72 -9 -157 -6 -144 -10 -203 -13 -240 -2 -12 -70 209 -111 361 -10 35 -11 37
-53 34 -23 -2 -62 -4 -87 -4 l-46 -1 -34 -117 c-18 -65 -46 -156 -61 -203
l-28 -85 6 66 5 66 -33 0 c-74 1 -100 3 -95 11 3 6 17 173 20 251 1 23 -2 24
-67 25 -37 0 -74 -1 -80 -4z m465 -272 c-17 -17 -32 1 -26 30 14 66 17 68 27
23 5 -28 5 -47 -1 -53z"/>
<path d="M193 445 c-29 -7 -55 -10 -58 -7 -3 3 -5 -37 -6 -89 0 -52 -1 -149
-2 -217 -2 -116 -1 -122 18 -123 11 -1 39 -2 63 -3 60 -3 66 3 63 72 l-2 60
53 6 c155 20 223 165 121 260 -50 47 -151 63 -250 41z m147 -129 c18 -22 8
-59 -20 -73 -33 -17 -48 2 -42 51 3 30 8 36 27 36 12 0 28 -7 35 -14z"/>
</g>
</svg>
